<?xml version="1.0" ?>

<!-- Uploaded to: SVG Repo, www.svgrepo.com, Generator: SVG Repo Mixer Tools -->
<svg fill="#000000" width="32" height="32" fill="white" viewBox="-3.66 0 31.555 31.555" xmlns="http://www.w3.org/2000/svg">

<g transform="translate(-487.039 -450.183)">

<path d="M508.337,452.183a.942.942,0,0,1,.942.941V478.8a.943.943,0,0,1-.942.942H489.98a.944.944,0,0,1-.942-.942V453.124a.943.943,0,0,1,.942-.941h18.357m0-2H489.98a2.941,2.941,0,0,0-2.941,2.941V478.8a2.942,2.942,0,0,0,2.941,2.942h18.357a2.942,2.942,0,0,0,2.942-2.942V453.124a2.942,2.942,0,0,0-2.942-2.941Z"/>

<path d="M505.465,462.641a1.371,1.371,0,0,1-.961-.394l-2.359-2.322a.273.273,0,0,0-.384,0l-2.286,2.3a1.373,1.373,0,0,1-2.347-.967V451.213a1,1,0,0,1,2,0v8.523l1.215-1.221a2.276,2.276,0,0,1,3.2-.016l1.293,1.272v-8.558a1,1,0,0,1,2,0v10.054a1.373,1.373,0,0,1-1.375,1.374Z"/>

</g>

</svg>