<svg width="19" height="17" viewBox="0 0 19 17" fill="none" xmlns="http://www.w3.org/2000/svg">
    <path d="M15.8333 16.0307L13.5903 13.7877H4.22222C3.04915 13.7877 2.05235 13.3771 1.23183 12.5558C0.410611 11.7353 0 10.7385 0 9.56544C0 8.45148 0.381056 7.49128 1.14317 6.68483C1.90598 5.87839 2.83698 5.43857 3.93617 5.36539C3.9805 5.20424 4.02835 5.05013 4.07972 4.90306C4.13109 4.75669 4.19337 4.61031 4.26656 4.46394L0.923611 1.121L2.04567 0L16.9543 14.9087L15.8333 16.0307ZM4.22222 12.2043H12.0069L5.49733 5.69472C5.43893 5.88543 5.38404 6.07965 5.33267 6.27739C5.2813 6.47583 5.22641 6.67041 5.168 6.86111L4.04594 6.94872C3.34224 7.00713 2.75606 7.28193 2.28739 7.77311C1.81802 8.2643 1.58333 8.86174 1.58333 9.56544C1.58333 10.2987 1.83983 10.9218 2.35283 11.4348C2.86583 11.9478 3.48896 12.2043 4.22222 12.2043ZM17.4167 13.1279L16.2513 11.9848C16.5884 11.8089 16.8671 11.552 17.0873 11.2142C17.3069 10.8771 17.4167 10.5035 17.4167 10.0932C17.4167 9.50704 17.2115 9.00846 16.8013 8.5975C16.3903 8.18724 15.8917 7.98211 15.3056 7.98211H13.8542L13.7222 6.55289C13.6195 5.46778 13.1649 4.55507 12.3584 3.81478C11.552 3.07448 10.5992 2.70433 9.5 2.70433C9.13337 2.70433 8.78504 2.74831 8.455 2.83628C8.12567 2.92424 7.80689 3.0488 7.49867 3.20994L6.3555 2.06678C6.82487 1.77333 7.31957 1.54252 7.83961 1.37433C8.36035 1.20544 8.91382 1.121 9.5 1.121C11.0101 1.121 12.3222 1.63048 13.4362 2.64944C14.5501 3.66841 15.1733 4.91819 15.3056 6.39878C16.3316 6.39878 17.2038 6.75802 17.9223 7.4765C18.6408 8.19498 19 9.06722 19 10.0932C19 10.7237 18.8571 11.3029 18.5714 11.8307C18.2857 12.3584 17.9008 12.7909 17.4167 13.1279Z" fill="#5F6368" />
</svg>